<svg width="140" height="44" viewBox="0 0 140 44" fill="none" xmlns="http://www.w3.org/2000/svg">
  <path d="M18.0425 33.2316H28.1955V28.9679H22.924V24.412H27.9668V20.1484H22.924V15.9484H28.1955V11.681H18.0425V33.2316Z" fill="currentColor"/>
  <path d="M37.085 26.9972L34.6629 11.681H29.6502L34.273 33.2316H39.9007L44.5235 11.681H39.5107L37.085 26.9972Z" fill="currentColor"/>
  <path d="M51.0884 11.681H46.2069V33.2316H51.0884V11.681Z" fill="currentColor"/>
  <path d="M58.9769 11.681H52.9631V33.2316H59.0106C64.5408 33.2316 66.8353 28.612 66.8353 22.4713C66.8353 16.3306 64.507 11.6772 58.9769 11.6772V11.681ZM58.9769 28.9679H57.8446V15.9447H58.9769C60.7878 15.9447 61.8226 17.9154 61.8226 22.4713C61.8226 27.0272 60.8215 28.9679 58.9769 28.9679Z" fill="currentColor"/>
  <path d="M68.5825 33.2316H78.7355V28.9679H73.464V24.412H78.5105V20.1484H73.464V15.9484H78.7355V11.681H68.5825V33.2316Z" fill="currentColor"/>
  <path d="M89.5371 22.8946L85.8178 11.681H80.9363V33.2316H85.7203V21.4409L89.762 33.2316H94.3211V11.681H89.5371V22.8946Z" fill="currentColor"/>
  <path d="M106.997 15.5925V11.681H96.2932V15.9484H101.467L96.2932 29.129V33.2316H107.222V28.9679H101.696L106.997 15.5925Z" fill="currentColor"/>
  <path d="M113.27 11.681L108.647 33.2316H113.401L113.949 29.7435H118.215L118.766 33.2316H123.52L118.898 11.681H113.27ZM114.5 25.4798L116.086 15.9784L117.668 25.4798H114.5Z" fill="currentColor"/>
</svg>
